<svg xmlns="http://www.w3.org/2000/svg" viewBox="0 0 64 64" role="img" aria-labelledby="title desc">
  <title id="title">Deploying</title>
  <desc id="desc">Animated deployment progress icon for Control Plane Flow review apps.</desc>
  <defs>
    <linearGradient id="ring" x1="8" x2="56" y1="8" y2="56" gradientUnits="userSpaceOnUse">
      <stop offset="0" stop-color="#3ddc97"/>
      <stop offset="0.5" stop-color="#4f8cff"/>
      <stop offset="1" stop-color="#ffb84d"/>
    </linearGradient>
    <filter id="soft-shadow" x="-20%" y="-20%" width="140%" height="140%">
      <feDropShadow dx="0" dy="2" stdDeviation="2" flood-color="#233044" flood-opacity="0.22"/>
    </filter>
  </defs>

  <circle cx="32" cy="32" r="28" fill="#f7fbff"/>
  <circle cx="32" cy="32" r="23" fill="none" stroke="#d7e4f2" stroke-width="4"/>

  <g>
    <animateTransform
      attributeName="transform"
      type="rotate"
      from="0 32 32"
      to="360 32 32"
      dur="1.1s"
      repeatCount="indefinite"/>
    <circle
      cx="32"
      cy="32"
      r="23"
      fill="none"
      stroke="url(#ring)"
      stroke-linecap="round"
      stroke-width="4"
      stroke-dasharray="40 110"/>
  </g>

  <g filter="url(#soft-shadow)">
    <path d="M35.7 13.5c-7.8 3.1-13 10-15.8 20.8l9.8 9.8c10.8-2.8 17.7-8 20.8-15.8 1.7-4.4 1.4-9.7-.9-14-4.3-2.2-9.6-2.6-13.9-.8Z" fill="#ffffff"/>
    <path d="M35.7 13.5c-7.8 3.1-13 10-15.8 20.8l9.8 9.8c10.8-2.8 17.7-8 20.8-15.8 1.7-4.4 1.4-9.7-.9-14-4.3-2.2-9.6-2.6-13.9-.8Z" fill="#4f8cff" opacity="0.18"/>
    <path d="M35.7 13.5c-7.8 3.1-13 10-15.8 20.8l9.8 9.8c10.8-2.8 17.7-8 20.8-15.8 1.7-4.4 1.4-9.7-.9-14-4.3-2.2-9.6-2.6-13.9-.8Z" fill="none" stroke="#233044" stroke-width="2" stroke-linejoin="round"/>
    <circle cx="39.7" cy="24.3" r="4.5" fill="#3ddc97" stroke="#233044" stroke-width="2"/>
    <path d="M20.2 34.1 13.5 36l7.1 7.1 2-6.6-2.4-2.4Z" fill="#ffb84d" stroke="#233044" stroke-width="2" stroke-linejoin="round"/>
    <path d="M29.9 43.8 28 50.5l-7.1-7.1 6.6-2 2.4 2.4Z" fill="#ff6b6b" stroke="#233044" stroke-width="2" stroke-linejoin="round"/>
    <path d="M18.8 45.2c-2.4.7-4.1 2.4-5.2 5.2 2.8-1.1 4.5-2.8 5.2-5.2Z" fill="#ffb84d"/>
  </g>
</svg>
